PathFileType	4	(X/Y/Z)	ScaleMarkers.trc																																																																																								
DataRate	CameraRate	NumFrames	NumMarkers	Units	OrigDataRate	OrigDataStartFrame	OrigNumFrames																																																																																				
100	100	10	30	mm	100	51 100																																																																																					
Frame#	Time	Thumb_MCP_L			Thumb_PIP_L			Thumb_DIP_L			Thumb_TIP_L			Index_MCP_L			Index_PIP_L			Index_DIP_L			Index_TIP_L			Middle_MCP_L			Middle_PIP_L			Middle_DIP_L			Middle_TIP_L			Ring_MCP_L			Ring_PIP_L			Ring_DIP_L			Ring_TIP_L			Little_MCP_L			Little_PIP_L			Little_DIP_L			Little_TIP_L			Wrist_L			Elbow_L			Point_W1_L			Point_E1_L			Shoulder_L			Point_F1_L			Point_F2_L			Point_F3_L			Point_F4_L			Point_F5_L		
		X1	Y1	Z1	X2	Y2	Z2	X3	Y3	Z3	X4	Y4	Z4	X5	Y5	Z5	X6	Y6	Z6	X7	Y7	Z7	X8	Y8	Z8	X9	Y9	Z9	X10	Y10	Z10	X11	Y11	Z11	X12	Y12	Z12	X13	Y13	Z13	X14	Y14	Z14	X15	Y15	Z15	X16	Y16	Z16	X17	Y17	Z17	X18	Y18	Z18	X19	Y19	Z19	X20	Y20	Z20	X21	Y21	Z21	X22	Y22	Z22	X23	Y23	Z23	X24	Y24	Z24	X25	Y25	Z25	X26	Y26	Z26	X27	Y27	Z27	X28	Y28	Z28	X29	Y29	Z29	X30	Y30	Z30
51	14.24348617	192.7089665	-111.176522	-164.5129387	198.4936055	-102.7566518	-152.1984915	207.5255057	-112.7505768	-148.3844193	215.930293	-125.0800369	-146.8530065	198.0305776	-113.3059793	-183.3167724	220.1747577	-120.598579	-164.4367283	211.6946169	-137.2943192	-157.4125185	203.7929916	-152.2658739	-151.2955723	193.8176433	-117.0280548	-184.0480092	221.7391357	-130.9326341	-176.9042069	211.859949	-147.2605307	-164.0676824	199.9963849	-159.6960769	-153.838833	190.8229382	-121.6327392	-189.7917753	221.0225961	-130.8444318	-184.5849326	211.6376635	-146.7799963	-172.6698558	201.1058729	-160.3394186	-162.4118186	188.3883301	-121.9143673	-190.0116966	210.8965283	-125.9876687	-192.4179105	210.9588736	-137.8029806	-186.996037	195.3868221	-146.263118	-180.1449239	157.8209407	-102.033763	-163.2542769	-38.57886003	-127.5715137	-135.4151613	167.7898689	-85.12086792	-159.4363242	-34.824144	-142.3927772	-122.5221341	0	0	0	206.5959967	-103.1977676	-176.4915837	206.8849617	-123.8930534	-197.7913369	192.1338768	-128.7058964	-200.1970224	190.0581809	-133.3093743	-206.01167	184.9841771	-130.1488486	-207.917173
52	14.25348617	192.7083304	-111.1827428	-164.5339609	198.5004752	-102.7655527	-152.2167283	207.5373514	-112.7499564	-148.3921854	215.9410515	-125.0799921	-146.8616569	198.0258084	-113.3036557	-183.3410485	220.1491019	-120.6078894	-164.4418308	211.6973352	-137.3091807	-157.3960797	203.793788	-152.2798421	-151.2813616	193.8132319	-117.0265885	-184.0725634	221.7400064	-130.9199535	-176.9201275	211.8909993	-147.2600787	-164.0679514	200.0202305	-159.6825579	-153.8396666	190.8178011	-121.6277493	-189.8154974	221.0212574	-130.8273612	-184.6005292	211.6394832	-146.763605	-172.6851524	201.0972175	-160.3154752	-162.4307566	188.3831799	-121.909783	-190.0341874	210.8910999	-125.991758	-192.4245505	210.9592125	-137.8050084	-186.9992139	195.3869118	-146.2646255	-180.1490217	157.8192809	-102.0455507	-163.2560151	-38.55271896	-127.6791765	-135.3172564	167.7867216	-85.13282012	-159.4370506	-34.78372908	-142.4900944	-122.4156448	0	0	0	206.5930942	-103.2073024	-176.5122089	206.8859392	-123.8924329	-197.809752	192.1357277	-128.7070723	-200.2192691	190.0567428	-133.3071252	-206.0318108	184.9845356	-130.1516899	-207.940411
53	14.26348617	192.7081097	-111.1856695	-164.5530163	198.5047575	-102.7702885	-152.2302915	207.5447494	-112.748628	-148.398738	215.9477372	-125.0798279	-146.8689071	198.0236461	-113.3006233	-183.3620474	220.1294169	-120.6147926	-164.4455571	211.7000484	-137.3204606	-157.3832704	203.7954194	-152.290424	-151.2703917	193.8112503	-117.0236533	-184.0936404	221.7403247	-130.8980655	-176.9279711	211.9562345	-147.2607989	-164.0628583	200.0709733	-159.6754171	-153.8365541	190.815451	-121.6231965	-189.8348281	221.0208591	-130.819517	-184.6336631	211.6398684	-146.749425	-172.7179747	201.078983	-160.2924481	-162.4706509	188.3808228	-121.9054552	-190.0524986	210.8884348	-125.9956983	-192.4343189	210.9605183	-137.8085378	-187.0056757	195.387315	-146.2676766	-180.1573236	157.8186058	-102.0513965	-163.2613543	-38.49970546	-127.8971297	-135.127834	167.7853247	-85.13879092	-159.4386443	-34.70180959	-142.6871041	-122.2110609	0	0	0	206.5919088	-103.2118593	-176.5261186	206.8879782	-123.8911624	-197.8255167	192.1408918	-128.7116494	-200.2345618	190.0527586	-133.3022023	-206.0569508	184.9854952	-130.1528618	-207.9609426
54	14.27348617	192.707489	-111.192504	-164.5620847	198.512413	-102.7808231	-152.2498563	207.559326	-112.7478287	-148.4017466	215.9609509	-125.0797291	-146.8722225	198.0184756	-113.2989705	-183.3718137	220.1199304	-120.6177339	-164.4518748	211.7049001	-137.3253374	-157.3776572	203.7964011	-152.2949937	-151.2656115	193.8064851	-117.0218906	-184.1045189	221.7404237	-130.8852824	-176.9304937	211.995489	-147.2622679	-164.0539079	200.1015072	-159.6730465	-153.8307026	190.809996	-121.621027	-189.8508393	221.0197163	-130.8053322	-184.6536011	211.6410248	-146.7428297	-172.7377251	201.0680107	-160.2811903	-162.4946568	188.3753583	-121.9033598	-190.069341	210.8825743	-126.0030354	-192.4398206	210.9631342	-137.8145022	-187.009564	195.3881358	-146.2721772	-180.1623191	157.8168135	-102.064219	-163.2697776	-38.46780524	-128.0282803	-135.0147514	167.7817627	-85.15181599	-159.4396033	-34.65251555	-142.8056523	-122.0890825	0	0	0	206.5887778	-103.2225675	-176.5512545	206.8892052	-123.8903978	-197.8328099	192.1439993	-128.7200607	-200.2407557	190.0503611	-133.29924	-206.0704782	184.9867318	-130.1559356	-207.9705934
55	14.28348617	192.599187	-111.2884855	-164.5562039	198.5435913	-102.8996478	-152.2963133	207.6481911	-112.7756381	-148.3552222	216.0424823	-125.1130806	-146.8313065	197.934197	-113.3620322	-183.3621921	220.1186442	-120.5143601	-164.4755219	211.7282551	-137.226519	-157.3829852	203.7867639	-152.1893417	-151.2966548	193.7258499	-117.0868197	-184.1059255	221.6033037	-131.0582661	-176.9194575	211.9450901	-147.4570248	-164.0065168	200.0160771	-159.826158	-153.7739372	190.7399452	-121.6794401	-189.8632558	220.9489382	-130.7427639	-184.4537098	211.8956158	-146.804045	-172.450632	201.1971576	-160.2821688	-162.2583281	188.3057924	-121.9631645	-190.0852927	210.8261012	-126.0441469	-192.3606545	211.0576205	-137.8377875	-186.8963834	195.4711008	-146.282431	-180.0590229	157.7000435	-102.1875884	-163.2935979	-38.61197622	-127.9524562	-135.0454879	167.6476102	-85.27394986	-159.4268155	-34.81202002	-142.7372136	-122.1237512	0	0	0	206.4158663	-103.3847604	-176.6635889	206.8205316	-123.9559497	-197.8121962	192.0206907	-128.7853461	-200.2373193	190.1155321	-133.41918	-206.043889	184.9884218	-130.3087573	-207.9565676
56	14.29348617	192.5899962	-111.2686183	-164.5646667	198.5944035	-102.90459	-152.3169585	207.7019939	-112.7770593	-148.3726208	216.0916551	-125.1170799	-146.844549	197.9459444	-113.3439585	-183.3650945	220.1210938	-120.5227421	-164.4770121	211.7297286	-137.2339954	-157.3829966	203.7777012	-152.1937922	-151.3027282	193.7371054	-117.067144	-184.1134192	221.650639	-130.9676353	-176.923433	212.0240293	-147.3681941	-163.9880706	200.068144	-159.7114398	-153.7589329	190.7555942	-121.6585955	-189.8745312	220.9783355	-130.7834385	-184.6386476	211.7785877	-146.7874659	-172.6743074	201.0450514	-160.2441469	-162.4856958	188.3215912	-121.9413939	-190.0993108	210.8385442	-126.0553489	-192.3566357	211.0682464	-137.8488453	-186.8923203	195.477846	-146.2894413	-180.0590382	157.6926822	-102.1554169	-163.3413411	-38.58610563	-128.0388293	-134.9709933	167.6417776	-85.2454461	-159.4614817	-34.76942151	-142.8152373	-122.0446382	0	0	0	206.3905045	-103.391629	-176.7077205	206.8277671	-123.9390782	-197.8173624	192.0518053	-128.7918037	-200.2302276	190.0291489	-133.3507861	-206.0809681	185.006708	-130.2859326	-207.9706603
57	14.30348617	192.6092091	-111.2264407	-164.537998	198.6318234	-102.8707323	-152.2949913	207.7268797	-112.7678748	-148.3804638	216.11547	-125.1082429	-146.8484768	197.9475863	-113.2756753	-183.3457232	220.08863	-120.5013744	-164.4371859	211.7582543	-137.2248858	-157.3021001	203.7955789	-152.1842263	-151.2344832	193.7383704	-116.9983203	-184.0955626	221.6271156	-130.9920288	-177.0007343	211.9210669	-147.3651356	-164.0908713	199.9513801	-159.697033	-153.860969	190.7518317	-121.5822767	-189.860447	220.9406625	-130.8373976	-184.6721195	211.764276	-146.8545556	-172.7039686	201.0084135	-160.2894893	-162.5158247	188.3176255	-121.8650469	-190.0836357	210.8212907	-126.031334	-192.3665848	211.0405362	-137.8394003	-186.9326861	195.4475096	-146.2765342	-180.1005643	157.7124947	-102.1180062	-163.2707484	-38.60374523	-127.9148489	-135.0834621	167.6641387	-85.21236851	-159.3768626	-34.80577813	-142.7032084	-122.1652626	0	0	0	206.4046266	-103.3588416	-176.6943817	206.832741	-123.8673157	-197.7980277	191.9826796	-128.6823797	-200.2338439	189.9630574	-133.2535946	-206.0837427	184.9672108	-130.1595376	-207.9719609
58	14.31348617	192.5677373	-111.2104105	-164.5336457	198.6444281	-102.8762484	-152.3019095	207.7424691	-112.7710694	-148.3881064	216.130312	-125.1112764	-146.8508524	197.9281623	-113.2636196	-183.3349681	220.054584	-120.5083167	-164.4157774	211.7910175	-137.2444627	-157.2314879	203.8194198	-152.2019854	-151.1712753	193.7195385	-116.9860869	-184.0888443	221.5563186	-130.9972347	-176.8222816	212.2414185	-147.5160855	-163.8085372	200.2416594	-159.8205124	-153.5807847	190.7397496	-121.5708795	-189.8561902	220.9171826	-130.7891466	-184.5322626	211.868878	-146.8605773	-172.5390685	201.0823843	-160.290162	-162.3754469	188.3057983	-121.8535087	-190.0820185	210.8100029	-126.0216039	-192.3595457	211.0395049	-137.8285793	-186.9242228	195.4432076	-146.2603264	-180.0932847	157.6702699	-102.0990209	-163.3089857	-38.58148458	-128.1278299	-134.8878366	167.618644	-85.19336404	-159.4066674	-34.75006585	-142.8956393	-121.9560155	0	0	0	206.3453406	-103.3641595	-176.7243296	206.8162088	-123.8552996	-197.785541	192.0196365	-128.7179469	-200.1971006	190.0270891	-133.2655222	-206.0650954	184.9585025	-130.1524463	-207.9683984
59	14.32348617	192.548627	-111.2279765	-164.5295331	198.6366427	-102.8805624	-152.3053331	207.7361132	-112.7731604	-148.3951909	216.124834	-125.1119426	-146.8555061	197.9056929	-113.2753958	-183.3311238	220.043556	-120.5078974	-164.4182089	211.8003971	-137.2455992	-157.2155974	203.8251145	-152.2018304	-151.1582723	193.6979675	-116.9986005	-184.0853022	221.5455467	-130.9925271	-176.8172355	212.2196715	-147.497827	-163.8099483	200.2215878	-159.8101645	-153.5824957	190.7193637	-121.5826304	-189.8533485	220.9031902	-130.7832331	-184.5405729	211.8764488	-146.8629751	-172.5448865	201.0778761	-160.2888938	-162.3849818	188.2854961	-121.865738	-190.0797338	210.7903645	-125.990859	-192.4143385	210.9693738	-137.8059901	-186.9951907	195.3697057	-146.2343239	-180.1648309	157.6484703	-102.1245458	-163.2925931	-38.57136656	-128.2761177	-134.7497416	167.5924438	-85.21766852	-159.3929361	-34.72339915	-143.0296	-121.8065956	0	0	0	206.3174438	-103.3860298	-176.7263389	206.7931576	-123.8676624	-197.7817865	192.0164944	-128.743675	-200.1904473	190.0128729	-133.2821798	-206.0613273	184.9110837	-130.1202571	-207.9778566
60	14.33348617	192.5352326	-111.259553	-164.52441	198.6145462	-102.8841871	-152.3077857	207.7167326	-112.7751495	-148.4014102	216.108391	-125.1123348	-146.8609211	197.8836895	-113.2965648	-183.3286938	220.0366039	-120.5063986	-164.4225797	211.8057459	-137.2461827	-157.2062886	203.8281607	-152.2012568	-151.1507647	193.6769258	-117.0210948	-184.082427	221.5395622	-130.9840647	-176.8147144	212.1648384	-147.46435	-163.8150683	200.1684292	-159.7846024	-153.5886531	190.6964967	-121.6037538	-189.8505847	220.8927643	-130.7807058	-184.5555115	211.8793573	-146.8645448	-172.555345	201.0697722	-160.2845588	-162.4021217	188.2625917	-121.8877215	-190.0758224	210.7684078	-125.9495012	-192.5128339	210.8451515	-137.7789207	-187.1227623	195.2450108	-146.2059229	-180.2934421	157.6326435	-102.1704292	-163.2630557	-38.5643038	-128.3954303	-134.6380673	167.5727262	-85.26135819	-159.3643914	-34.704492	-143.1373794	-121.6852502	0	0	0	206.2977672	-103.4178318	-176.727379	206.7688775	-123.8898858	-197.7796246	192.0060675	-128.7646691	-200.187227	189.9873179	-133.2997361	-206.059465	184.8396303	-130.0734895	-207.9948586
